<svg fill="none" height="100" viewBox="0 0 225 100" width="225" xmlns="http://www.w3.org/2000/svg" xmlns:xlink="http://www.w3.org/1999/xlink"><mask id="a" height="69" maskUnits="userSpaceOnUse" width="47" x="0" y="27"><path clip-rule="evenodd" d="m0 27.0557h46.3631v68.5223h-46.3631z" fill="#fff" fill-rule="evenodd"/></mask><g fill="#fff"><path d="m83.8873 30.5806c0 4.4933-3.2207 7.6386-7.6398 7.6386h-4.1195v5.9161h-4.9434v-21.2681h9.0629c4.494 0 7.6398 3.2202 7.6398 7.7134zm-4.9434 0c0-2.0968-1.4231-3.6695-3.3705-3.6695h-3.3705v7.339h3.3705c1.9474 0 3.3705-1.5726 3.3705-3.6695z"/><path d="m84.3369 36.7955c0-4.3435 2.6964-7.7135 6.9657-7.7135 2.0972 0 3.8199.9736 4.5689 2.4713v-2.0968h4.6435v14.6031h-4.6435v-2.0969c-.8239 1.4229-2.6215 2.4713-4.6438 2.4713-4.4191.0749-6.8908-3.2201-6.8908-7.6385zm11.6844 0c0-2.0969-1.1984-3.8193-3.5203-3.8193-2.1721 0-3.5203 1.5726-3.5203 3.8193 0 2.2466 1.3482 3.8193 3.5203 3.8193 2.3219.0748 3.5203-1.7225 3.5203-3.8193z"/><path d="m118.041 29.5322v14.1538c0 2.3964-.824 4.1189-2.097 5.2422-1.274 1.1233-2.922 1.7224-5.393 1.7224-2.472 0-4.195-.5242-5.393-1.4978-1.049-.8986-1.798-2.2466-1.798-3.8192h4.644c.075 1.2731.824 1.947 2.547 1.947 1.722 0 2.846-.9735 2.846-3.295v-2.2467c-.824 1.5727-2.397 2.3965-4.644 2.3965-3.745 0-5.393-2.4713-5.393-6.1408v-8.4624h4.644v7.7884c0 1.8722.674 3.1453 2.547 3.1453 1.872 0 2.846-1.4229 2.846-3.6696v-7.2641z"/><path d="m135.492 38.0686h-10.785c.074 1.9471 1.348 2.9206 3.445 2.9206 1.423 0 2.322-.3744 2.696-1.2731h4.569c-.449 2.8457-3.37 4.7928-7.265 4.7928-4.943 0-8.014-2.8457-8.014-7.7134 0-4.7928 3.145-7.7135 7.864-7.7135 4.569 0 7.64 2.8458 7.64 6.9646 0 .7489 0 1.1982-.15 2.022zm-4.419-2.8458c0-1.947-1.123-2.9955-3.071-2.9955-2.022 0-3.22 1.1982-3.22 2.9955z"/><path d="m143.132 33.3515h-6.516v-3.8193h13.557l-7.115 10.7839h6.516v3.8193h-13.707z"/><path d="m158.562 36.7955c0-4.3435 2.697-7.7135 6.966-7.7135 2.097 0 3.82.9736 4.569 2.4713v-2.0968h4.644v14.6031h-4.719v-2.0969c-.824 1.4229-2.621 2.4713-4.644 2.4713-4.344.0749-6.816-3.2201-6.816-7.6385zm11.685 0c0-2.0969-1.199-3.8193-3.52-3.8193-2.173 0-3.521 1.5726-3.521 3.8193 0 2.2466 1.348 3.8193 3.521 3.8193 2.321.0748 3.52-1.7225 3.52-3.8193z"/><path d="m175.864 29.5322h5.093l3.296 9.2112 3.296-9.2112h5.168l-6.367 14.6032h-4.194z"/><path d="m207.697 38.0686h-10.785c.075 1.9471 1.348 2.9206 3.445 2.9206 1.423 0 2.322-.3744 2.696-1.2731h4.569c-.449 2.8457-3.37 4.7928-7.265 4.7928-4.943 0-8.014-2.8457-8.014-7.7134 0-4.7928 3.146-7.7135 7.864-7.7135 4.569 0 7.64 2.8458 7.64 6.9646 0 .7489-.075 1.1982-.15 2.022zm-4.419-2.8458c0-1.947-1.123-2.9955-3.071-2.9955-2.022 0-3.22 1.1982-3.22 2.9955z"/><path d="m209.045 36.7955c0-4.6431 2.996-7.7135 7.79-7.7135 4.344 0 7.19 2.3216 7.564 5.9162h-4.643c-.3-1.348-1.199-2.022-2.921-2.022-2.023 0-3.221 1.348-3.221 3.7444s1.198 3.7444 3.221 3.7444c1.722 0 2.546-.5991 2.921-1.8722h4.643c-.374 3.5197-3.22 5.8412-7.564 5.8412-4.794.0749-7.79-2.9955-7.79-7.6385z"/></g><g mask="url(#a)"><path clip-rule="evenodd" d="m41.0445 38.141c-.8988-6.3654-6.2916-11.0834-12.733-11.0834-6.3665 0-11.8342 4.718-12.733 11.0834l-1.9473 13.8543-7.41514-6.4404c-.8988-.7489-2.247-.7489-3.0709.0749-.2996.2247-.5992.4493-.8239.7489-3.145795 3.1453-3.145795 8.2376 0 11.4578l7.34019 7.339c1.34825 1.5727 2.09725 3.5946 1.64785 6.1408-.0749.5991-.1498.9736-.1498 1.2731l-.3745 2.5462c-.1498.8238-.1498 1.6475-.1498 2.4713 0 9.9601 7.7895 18.048 17.7512 18.048.8239 0 1.6478-.0749 2.4717-.1498 9.8868-1.348 16.7776-10.4843 15.3545-20.3695z" fill="#040505" fill-rule="evenodd"/></g><path clip-rule="evenodd" d="m37.974 88.2412c-4.0446 0-7.3402 3.2951-7.3402 7.339h14.7553c-.0749-4.0439-3.3705-7.339-7.4151-7.339z" fill="#f58231" fill-rule="evenodd"/><path clip-rule="evenodd" d="m18.724 88.2412c-4.0446 0-7.3402 3.2951-7.3402 7.339h14.7553c0-4.0439-3.3705-7.339-7.4151-7.339z" fill="#f58231" fill-rule="evenodd"/><path clip-rule="evenodd" d="m24.0427 36.7188c-.9737 0-1.7976.8986-1.7976 2.0219s.8239 2.022 1.7976 2.022 1.7976-.8987 1.7976-2.022-.749-2.0219-1.7976-2.0219z" fill="#fff" fill-rule="evenodd"/><path clip-rule="evenodd" d="m32.655 36.7188c-.9737 0-1.7976.8986-1.7976 2.0219s.8239 2.022 1.7976 2.022 1.7976-.8987 1.7976-2.022-.8239-2.0219-1.7976-2.0219z" fill="#f2f2f2" fill-rule="evenodd"/><path clip-rule="evenodd" d="m28.3121 87.5669c5.243 0 9.5123-7.1144 9.5123-15.8762 0-8.7619-4.2693-15.8762-9.5123-15.8762s-9.5123 7.1143-9.5123 15.8762c0 8.7618 4.2693 15.8762 9.5123 15.8762z" fill="#fff" fill-rule="evenodd"/><path clip-rule="evenodd" d="m28.3118 42.8584c-1.9474 0-4.7936 1.5726-6.9657 1.7224-.0749 0-.1498.0749-.1498.1498s.0749.1498.1498.2995c1.7227 1.6476 3.745 3.0704 6.9657 3.0704 3.1458 0 5.5426-1.5726 7.1904-3.0704.0749-.0748.0749-.2246.0749-.2995s0-.1498-.1498-.1498c-2.0972-.1498-5.243-1.7224-7.1155-1.7224z" fill="#f58231" fill-rule="evenodd"/><path clip-rule="evenodd" d="m49.5842 10.5846c-1.1984-3.9691-6.741-5.46686-10.1115-3.14533-2.3219 1.64753-5.6175.29955-5.6175-1.72242 0-.22467.1498-.44933.2247-.52422.2996.22466.8239.5991 1.4231 1.12332 1.6478 1.27309 3.6701-.14978 4.9434-1.34798.2247-.14978-2.0223-1.12332-3.6701-1.2731-.9737-.07488-2.3968.89866-2.3968.89866.1498-.44933.2247-1.04843-.4494-1.27309-1.2733-.52422-2.3968-.59911-2.4717.22466 0 0-.2247-3.894169-2.7713-3.5197298-2.3968.2995518-3.4454.5242148-3.4454.5242148s.0749 1.123315 1.6478 2.246635c1.6478 1.19821 3.9697 1.27309 3.9697 1.27309s-.749 2.24664-5.9171-.22466c-6.2916-2.995513-13.2573 1.42287-13.482 9.28605-.1498 4.8678 1.0486 8.7619 1.498 8.6121.4494-.0748 32.6564-1.4977 32.6564-1.4977l2.1721-.674s3.3705-3.7444 1.7976-8.9865z" fill="#f7da83" fill-rule="evenodd"/><path clip-rule="evenodd" d="m17.3018 24.3638c-3.2207.5991-6.6661-2.2466-6.6661-2.2466-.89875-.8238-1.64775-1.8722-2.24695-2.9206-.0749-.2247-.2247-.2996-.4494-.3745-1.1235-.4493-2.1721-.9735-3.2207-1.6475 0-.0749 0-.0749 0-.1498.8239-.2246 1.6478-.4493 2.3968-.7489-.1498-.8237-.3745-1.6475-.5243-2.4713-.1498-.8237-.1498-1.7224-.2247-2.621-1.7227-.2996-4.04459-1.4229-4.64379-2.32155 1.1235-.5991 2.92109-.52422 4.41909-.22466.1498-1.49776.8988-3.51973 1.7227-4.11884.6741 1.19821.8988 3.44485.5992 5.24215 1.94735.674 3.74495 1.7224 5.39275 2.9955.5243-.7489 1.0486-1.4229 1.5729-2.0968 0 0 .0749 0 .0749.0748.0749.2996.1498.5243.1498.8238.0749 1.0484.2247 2.1718.2996 3.2202 0 .1498.0749.2995.1498.3744.3745.674.749 1.348 1.1235 1.9471 2.0223 3.9691.0749 7.2641.0749 7.2641z" fill="#5057a6" fill-rule="evenodd"/><path d="m21.4206 8.86292s-.3745-1.72242-1.5729-1.19821c-.2996.14978-.4494.44933-.3745.74888-.2996-.14978-.6741-.07489-.8988.14978-.749.82376.6741 1.79733.6741 1.79733-.9737-.44935-1.7227.5991-.4494 1.2731 1.2733.7488 2.4717.5242 2.4717.5242.2996-.0749.5243-.1498.6741-.2996.1498-.0749.3745-.2995.5243-.5242 0 0 .5992-1.1233.2996-2.54617s-1.498-.97354-1.3482.07489z" fill="#a0cd4c"/><path d="m29.1351 24.2913-8.4637-9.7354c-.9737-1.0484-.8239-2.696.3745-3.5197l.3745-.2996c1.1984-.82376 2.7713-.4493 3.4454.8238l6.2915 11.2332c.8988 2.0219-.5242 2.8457-2.0222 1.4977z" fill="#ed6b23"/><path d="m40.446 10.4324c-.2247.0749-1.1984.2996-2.3219 3.5946-.8239 2.3965-3.2207 3.5947-3.8199 6.3655-.5992 2.7709.6741 4.5682 3.2956 5.1673s5.0183-1.5727 6.5163-4.4933 1.7976-7.6386 1.0486-9.2861c-.5992-1.2731-2.7713-2.24663-4.7187-1.348z" fill="#28245f"/><path d="m42.094 9.5342s-.6741-.22466-1.6478.14978c-1.1984.52422-1.8725 2.24662-1.8725 2.54622-.0749.7488 1.1235-.4494 1.3482.0749.1498.5242.0749.9735-.2247 1.5726-.2247.5242 1.1984.9735 1.9474 0 .9737-1.2731 2.247-.8238 2.6964.5242s1.4231.1498 1.5729-.7489c.1498-1.2731 0-2.6959-1.4231-3.3699l-.5992-.29957.2247-1.19821c0-.14977-.0749-.22466-.2247-.14977s-.3745 0-.6741-.22467c-.5992-.5991-.749-.5991-1.1235 1.12332z" fill="#a0cd4c"/><path clip-rule="evenodd" d="m31.3824 18.1475h-6.9657-21.04687c-1.1235 0-1.8725.8986-1.498 1.7973.3745 1.0484 1.0486 2.6959 2.0972 5.1672 2.6215 6.4404 10.56087 6.5902 10.56087 6.5902h12.8079 1.3482 12.8079s7.8645-.2247 10.5609-6.5902c1.0486-2.4713 1.7227-4.1188 2.0972-5.0923.3745-.8987-.3745-1.7974-1.498-1.7974h-21.2716z" fill="#fff" fill-rule="evenodd"/><path d="m135.644 99.7754h-.225v.2246h.225z" fill="#fff"/><path d="m117.892 55.441h-9.062l-5.843 23.365-6.0666-23.365h-8.5386l-6.0669 23.365-5.9171-23.365h-9.0628l10.4111 33.3999h8.913l6.0669-22.0919 6.0669 22.0919h8.8381zm34.904 0h-8.164v3.5946c-2.622-2.696-6.142-4.2686-10.262-4.2686-8.688 0-15.878 7.4887-15.878 17.4488 0 9.8852 7.19 17.374 15.878 17.374 4.12 0 7.64-1.5727 10.262-4.2686v3.5946h8.164zm-8.539 16.8497c0 5.1673-3.82 9.4359-8.538 9.4359-4.719 0-8.539-4.1189-8.539-9.4359 0-5.4668 3.82-9.5856 8.539-9.5856 4.718 0 8.538 4.2686 8.538 9.5856zm46.288-16.8497h-8.838l-8.389 24.9376-8.239-24.9376h-8.988l12.658 33.3999h9.213zm34.155 20.0699c1.198-13.2552-6.966-20.8937-16.778-20.8937-9.437 0-17.152 7.9381-17.152 17.5986s7.715 17.4489 17.152 17.4489c8.314 0 14.231-4.5682 16.178-11.383h-9.212c-1.423 2.696-4.195 3.8942-7.041 3.8942-4.044 0-7.265-2.5462-8.389-6.5901h25.242zm-25.092-6.9646c1.199-3.8941 4.344-6.3654 8.239-6.3654 4.12 0 7.34 2.4713 8.389 6.3654z" fill="#fff"/></svg>